# AST/ASF file generated using VICON BodyLanguage
# -----------------------------------------------
:version 1.10
:name VICON
:units
  mass 1.0
  length 0.45
  angle deg
:documentation
   .ast/.asf automatically generated from VICON data using
   VICON BodyBuilder and BodyLanguage model FoxedUp or BRILLIANT.MOD
:root
   order TX TY TZ RX RY RZ
   axis XYZ
   position 0 0 0  
   orientation 0 0 0 
:bonedata
  begin
     id 1 
     name lhipjoint
     direction 0.576517 -0.752066 0.319413 
     length 2.45433 
     axis 0 0 0  XYZ
  end
  begin
     id 2 
     name lfemur
     direction 0.34202 -0.939693 0  
     length 7.54459  
     axis 0 0 20  XYZ
    dof rx ry rz
    limits (-160.0 20.0)
           (-70.0 70.0)
           (-60.0 70.0)
  end
  begin
     id 3 
     name ltibia
     direction 0.34202 -0.939693 0   
     length 7.73986   
     axis 0 0 20   XYZ
    dof rx
    limits (-10.0 170.0)
  end
  begin
     id 4 
     name lfoot
     direction 0.090693 -0.249177 0.964202   
     length 2.28437   
     axis -90 7.62852e-016 20   XYZ
    dof rx rz
    limits (-45.0 90.0)
           (-70.0 20.0)
  end
  begin
     id 5 
     name ltoes
     direction 1.5356e-011 -4.21928e-011 1   
     length 1.14243   
     axis -90 7.62852e-016 20   XYZ
    dof rx
    limits (-90.0 20.0)
  end
  begin
     id 6 
     name rhipjoint
     direction -0.573937 -0.753736 0.320122   
     length 2.44889  
     axis 0 0 0  XYZ 
  end
  begin
     id 7 
     name rfemur
     direction -0.34202 -0.939693 0   
     length 7.50166   
     axis 0 0 -20   XYZ
    dof rx ry rz
    limits (-160.0 20.0)
           (-70.0 70.0)
           (-70.0 60.0)
  end
  begin
     id 8 
     name rtibia
     direction -0.34202 -0.939693 0   
     length 7.54266   
     axis 0 0 -20   XYZ
    dof rx
    limits (-10.0 170.0)
 end
 begin
     id 9 
     name rfoot
     direction -0.114017 -0.31326 0.942798   
     length 2.34212  
     axis -90 -7.62852e-016 -20   XYZ
    dof rx rz
    limits (-45.0 90.0)
           (-20.0 70.0)
  end
  begin
     id 10 
     name rtoes
     direction -1.53557e-011 -4.21867e-011 1   
     length 1.16246   
     axis -90 -7.62852e-016 -20   XYZ
    dof rx
    limits (-90.0 20.0)
  end
  begin
     id 11 
     name lowerback
     direction -0.0228371 0.999155 -0.034167   
     length 2.0537   
     axis 0 0 0   XYZ
    dof rx ry rz
    limits (-20.0 45.0)
           (-30.0 30.0)
           (-30.0 30.0)
  end
  begin
     id 12 
     name upperback
     direction 0.0198981 0.999794 0.00389455   
     length 2.05302   
     axis 0 0 0   XYZ
    dof rx ry rz
    limits (-20.0 45.0)
           (-30.0 30.0)
           (-30.0 30.0)
  end
  begin
     id 13 
     name thorax
     direction 0.0304566 0.99935 0.0192987   
     length 2.05315   
     axis 0 0 0   XYZ
    dof rx ry rz
    limits (-20.0 45.0)
           (-30.0 30.0)
           (-30.0 30.0)
  end
  begin
     id 14 
     name lowerneck
     direction -0.0196762 0.99417 0.106017   
     length 1.82056   
     axis 0 0 0   XYZ
    dof rx ry rz
    limits (-20.0 45.0)
           (-30.0 30.0)
           (-30.0 30.0)
  end
  begin
     id 15 
     name upperneck
     direction 0.00517787 0.9802 -0.197944   
     length 1.83835   
     axis 0 0 0   XYZ
    dof rx ry rz
    limits (-20.0 45.0)
           (-30.0 30.0)
           (-30.0 30.0)
  end
  begin
     id 16
     name head
     direction 0.00211419 0.996945 -0.078081  
     length 1.85629  
     axis 0 0 0   XYZ
    dof rx ry rz
    limits (-20.0 45.0)
           (-30.0 30.0)
           (-30.0 30.0)
  end
  begin
     id 17 
     name lclavicle
     direction 0.930001 0.365811 -0.0357824  
     length 3.81961  
     axis 0 0 0   XYZ
    dof ry rz
    limits (-20.0 10.0)
           (0.0 20.0)
  end
  begin
     id 18 
     name lhumerus
     direction 1 -4.48968e-011 -3.06644e-027   
     length 5.14507   
     axis 180 -30 -90   XYZ
    dof rx ry rz
    limits (-60.0 90.0)
           (-90.0 90.0)
           (-90.0 90.0)
  end
  begin
     id 19
     name lradius
     direction 1 -4.48965e-011 9.06925e-028   
     length 3.50646   
     axis 180 -30 -90   XYZ
    dof rx
    limits (-10.0 170.0)
  end
  begin
     id 20
     name lwrist
     direction 1 -4.48957e-011 1.03922e-027   
     length 1.75323   
     axis -2.56395e-016 90 90   XYZ
    dof ry
    limits (-180.0 0.0)
 end
  begin
     id 21 
     name lhand
     direction 1 -4.48967e-011 2.08017e-027   
     length 0.629969   
     axis -1.32723e-015 90 90   XYZ
    dof rx rz
    limits (-90.0 90.0)
           (-45.0 45.0)
  end
  begin
     id 22 
     name lfingers
     direction 1 -4.49089e-011 4.20095e-027   
     length 0.507897   
     axis -2.6545e-015 90 90   XYZ
    dof rx
    limits (0.0 90.0)
  end
  begin
     id 23
     name lthumb
     direction 0.707107 -6.35001e-011 0.707107   
     length 0.729241   
     axis -90 45 5.05613e-014   XYZ
    dof rx rz
    limits (-45.0 45.0)
           (-45.0 45.0)
  end
  begin
     id 24 
     name rclavicle
     direction -0.881882 0.464123 -0.0829113   
     length 3.47515  
     axis 0 0 0   XYZ 
    dof ry rz
    limits (-10.0 20.0)
           (-20.0 0.0)
  end
  begin
     id 25 
     name rhumerus
     direction -1 -4.48961e-011 -1.55672e-027  
     length 5.232   
     axis 180 30 90   XYZ
    dof rx ry rz
    limits (-90.0 60.0)
           (-90.0 90.0)
           (-90.0 90.0)
  end
  begin
     id 26 
     name rradius
     direction -1 -4.48963e-011 6.18178e-029   
     length 3.65641   
     axis 180 30 90   XYZ
    dof rx
    limits (-10.0 170.0)
  end
  begin
     id 27 
     name rwrist
     direction -1 -4.48982e-011 1.04136e-027   
     length 1.8282   
     axis -2.56395e-016 -90 -90   XYZ
    dof ry
    limits (-180.0 0.0)
  end
  begin
     id 28
     name rhand
     direction -1 -4.48929e-011 2.07378e-027   
     length 0.656807   
     axis -1.32723e-015 -90 -90   XYZ
    dof rx rz
    limits (-90.0 90.0)
           (-45.0 45.0)
  end
  begin
     id 29
     name rfingers
     direction -1 -4.489e-011 4.13816e-027   
     length 0.529535   
     axis -2.6545e-015 -90 -90   XYZ
    dof rx
    limits (0.0 90.0)
  end
  begin
     id 30
     name rthumb
     direction -0.707107 -6.34843e-011 0.707107   
     length 0.760309   
     axis -90 -45 -5.05613e-014   XYZ
    dof rx rz
    limits (-45.0 45.0)
           (-45.0 45.0)
  end
:hierarchy
  begin
    root lhipjoint rhipjoint lowerback
    lhipjoint lfemur
    lfemur ltibia
    ltibia lfoot
    lfoot ltoes
    rhipjoint rfemur
    rfemur rtibia
    rtibia rfoot
    rfoot rtoes
    lowerback upperback
    upperback thorax
    thorax lowerneck lclavicle rclavicle
    lowerneck upperneck
    upperneck head
    lclavicle lhumerus
    lhumerus lradius
    lradius lwrist
    lwrist lhand lthumb
    lhand lfingers
    rclavicle rhumerus
    rhumerus rradius
    rradius rwrist
    rwrist rhand rthumb
    rhand rfingers
  end

#!OML:ASF H:\ManfredETheater\Project 1\Capture day 1\Session 1\subject.ASF
:FULLY-SPECIFIED
:DEGREES
16
root 1.19731 15.4353 41.878 -153.323 -6.43338 173.633
lowerback 14.8501 -3.43349 -4.17661
upperback 0.0230515 -5.21249 2.05665
thorax -7.73158 -2.36872 5.65955
lowerneck -16.6199 -1.82156 -3.054
upperneck -1.34948 -1.40317 2.35314
head 2.5061 -0.374232 1.22121
rclavicle 1.74931e-014 -4.77083e-015
rhumerus -72.6096 5.63771 -79.3954
rradius 74.1977
rwrist -14.3657
rhand -29.2101 -1.31498
rfingers 7.12502
rthumb -2.55465 -31.2794
lclavicle 1.74931e-014 -4.77083e-015
lhumerus -9.70879 -17.2178 85.264
lradius 127.84
lwrist 4.59572
lhand -30.5357 -5.7895
lfingers 7.12502
lthumb -3.83475 24.1557
rfemur -80.289 -11.0141 17.9777
rtibia 76.4246
rfoot -11.2412 0.673368
rtoes -27.2917
lfemur -7.44823 -10.2605 -23.8569
ltibia 38.1934
lfoot -11.6071 -9.78103
ltoes -14.5997
17
root 1.20795 15.4837 41.4242 -153.158 -6.17777 173.681
lowerback 14.6035 -3.55412 -4.03678
upperback 0.00441234 -5.33356 2.10905
thorax -7.60595 -2.43636 5.63835
lowerneck -16.859 -1.55964 -2.8563
upperneck -1.20703 -1.07819 2.09647
head 2.58385 -0.223296 1.12617
rclavicle 2.18663e-015 -7.7526e-015
rhumerus -73.5499 5.43103 -79.3884
rradius 75.2017
rwrist -14.5241
rhand -29.4053 -0.57851
rfingers 7.12502
rthumb -2.74309 -30.5406
lclavicle 2.18663e-015 -7.7526e-015
lhumerus -10.2941 -18.1987 85.1423
lradius 128.553
lwrist 5.14843
lhand -30.4115 -6.69184
lfingers 7.12502
lthumb -3.71481 23.2555
rfemur -79.9788 -10.5214 17.6622
rtibia 73.4875
rfoot -10.8738 0.783464
rtoes -27.4959
lfemur -6.06301 -10.5719 -23.8795
ltibia 36.4905
lfoot -5.6843 -9.65081
ltoes -14.9955
18
root 1.21844 15.5287 40.9653 -152.993 -5.87133 173.675
lowerback 14.3372 -3.64684 -3.93459
upperback -0.0138678 -5.42685 2.11852
thorax -7.47336 -2.48992 5.58435
lowerneck -17.1269 -1.32986 -2.69674
upperneck -0.989364 -0.79598 1.88826
head 2.69726 -0.0943069 1.05198
rclavicle -6.81831e-014 1.66979e-014
rhumerus -74.2699 5.07234 -79.3476
rradius 75.9866
rwrist -14.6349
rhand -29.6511 0.0656816
rfingers 7.12502
rthumb -2.98051 -29.8932
lclavicle -6.81831e-014 1.66979e-014
lhumerus -11.0646 -19.2497 85.1199
lradius 129.011
lwrist 5.5937
lhand -30.018 -7.42723
lfingers 7.12502
lthumb -3.33481 22.5264
rfemur -79.5161 -10.0987 17.3968
rtibia 70.8615
rfoot -10.4361 0.785295
rtoes -27.3792
lfemur -4.89738 -10.9321 -24.0016
ltibia 35.0056
lfoot 0.634978 -9.19226
ltoes -14.3435
19
root 1.22885 15.5677 40.5035 -152.82 -5.52673 173.606
lowerback 14.0601 -3.71466 -3.87969
upperback -0.0426198 -5.49715 2.08732
thorax -7.34862 -2.53021 5.50817
lowerneck -17.4084 -1.13398 -2.5754
upperneck -0.70569 -0.558658 1.72641
head 2.84002 0.0116141 0.997631
rclavicle -8.34896e-015 1.74931e-014
rhumerus -74.7753 4.58333 -79.2746
rradius 76.5828
rwrist -14.7281
rhand -29.9273 0.598682
rfingers 7.12502
rthumb -3.24725 -29.3563
lclavicle -8.34896e-015 1.74931e-014
lhumerus -12.0217 -20.3427 85.2172
lradius 129.195
lwrist 5.93899
lhand -29.384 -7.9439
lfingers 7.12502
lthumb -2.72253 22.0185
rfemur -78.9661 -9.7676 17.2104
rtibia 68.6696
rfoot -10.0143 0.679543
rtoes -26.8002
lfemur -3.97948 -11.3412 -24.2247
ltibia 33.8202
lfoot 6.97392 -8.42937
ltoes -12.7486
20
root 1.23923 15.5998 40.0408 -152.649 -5.16845 173.476
lowerback 13.7975 -3.75974 -3.87221
upperback -0.0800765 -5.54734 2.027
thorax -7.24239 -2.55825 5.4255
lowerneck -17.7016 -0.974076 -2.48817
upperneck -0.371609 -0.367328 1.59657
head 3.00599 0.0940148 0.957361
rclavicle -1.17283e-014 1.55052e-014
rhumerus -75.0633 3.99318 -79.1681
rradius 77.0248
rwrist -14.8326
rhand -30.2044 1.01803
rfingers 7.12502
rthumb -3.51485 -28.9327
lclavicle -1.17283e-014 1.55052e-014
lhumerus -13.1526 -21.4597 85.4581
lradius 129.095
lwrist 6.18835
lhand -28.5874 -8.16552
lfingers 7.12502
lthumb -1.95321 21.8053
rfemur -78.356 -9.54834 17.13
rtibia 67.0233
rfoot -9.71039 0.405191
rtoes -25.7993
lfemur -3.31519 -11.7665 -24.5317
ltibia 33.0295
lfoot 12.986 -7.50972
ltoes -10.0867
21
root 1.24999 15.6246 39.579 -152.492 -4.82538 173.281
lowerback 13.5726 -3.78966 -3.91756
upperback -0.120057 -5.58872 1.94618
thorax -7.15826 -2.57948 5.35267
lowerneck -17.9908 -0.849684 -2.43204
upperneck -0.0215098 -0.219168 1.49036
head 3.1798 0.155031 0.927624
rclavicle 3.02153e-014 -1.61016e-014
rhumerus -75.1286 3.32712 -79.035
rradius 77.3513
rwrist -14.9643
rhand -30.4487 1.30936
rfingers 7.12502
rthumb -3.75074 -28.6374
lclavicle 3.02153e-014 -1.61016e-014
lhumerus -14.433 -22.573 85.8466
lradius 128.707
lwrist 6.39586
lhand -27.6945 -8.15746
lfingers 7.12502
lthumb -1.09084 21.8195
rfemur -77.6971 -9.45646 17.154
rtibia 66.0088
rfoot -9.59917 -0.0323311
rtoes -24.494
lfemur -2.90587 -12.1608 -24.9065
ltibia 32.7326
lfoot 18.2734 -6.64675
ltoes -6.51668
22
root 1.26163 15.6426 39.1199 -152.364 -4.51073 173.039
lowerback 13.4169 -3.80006 -4.01083
upperback -0.160338 -5.61506 1.85915
thorax -7.11117 -2.59046 5.30407
lowerneck -18.2685 -0.762937 -2.40499
upperneck 0.315554 -0.114422 1.39759
head 3.34947 0.195158 0.904196
rclavicle -3.27995e-014 3.02153e-014
rhumerus -74.9732 2.59979 -78.8866
rradius 77.5904
rwrist -15.1481
rhand -30.6641 1.53417
rfingers 7.12502
rthumb -3.95874 -28.4088
lclavicle -3.27995e-014 3.02153e-014
lhumerus -15.8464 -23.6616 86.3989
lradius 128.034
lwrist 6.61193
lhand -26.7706 -7.95429
lfingers 7.12502
lthumb -0.198519 22.0254
rfemur -76.9922 -9.4739 17.2816
rtibia 65.6491
rfoot -9.7165 -0.589245
rtoes -22.8128
lfemur -2.7623 -12.4391 -25.311
ltibia 33.0185
lfoot 22.5398 -6.0306
ltoes -2.34882
23
root 1.27451 15.6545 38.6646 -152.286 -4.25396 172.762
lowerback 13.3688 -3.79852 -4.13293
upperback -0.196704 -5.63495 1.77436
thorax -7.11814 -2.59544 5.28298
lowerneck -18.5195 -0.713218 -2.4074
upperneck 0.610877 -0.0501933 1.312
head 3.50139 0.216343 0.884778
rclavicle -1.05356e-014 9.93923e-015
rhumerus -74.6047 1.83293 -78.7395
rradius 77.7708
rwrist -15.3561
rhand -30.8385 1.68384
rfingers 7.12502
rthumb -4.12716 -28.2559
lclavicle -1.05356e-014 9.93923e-015
lhumerus -17.3801 -24.6965 87.1192
lradius 127.084
lwrist 6.88883
lhand -25.8879 -7.63616
lfingers 7.12502
lthumb 0.654002 22.3426
rfemur -76.2089 -9.59078 17.4834
rtibia 65.9019
rfoot -10.1584 -1.31741
rtoes -21.1267
lfemur -2.87535 -12.5605 -25.7118
ltibia 33.947
lfoot 25.5613 -5.74886
ltoes 2.01815
24
root 1.28882 15.6598 38.2145 -152.263 -4.0524 172.478
lowerback 13.4309 -3.78062 -4.26956
upperback -0.22383 -5.64013 1.70446
thorax -7.17601 -2.59096 5.29335
lowerneck -18.7152 -0.699943 -2.4499
upperneck 0.827207 -0.0222145 1.23436
head 3.61611 0.221534 0.871327
rclavicle -8.15017e-015 1.88845e-014
rhumerus -74.0247 1.04511 -78.6065
rradius 77.9087
rwrist -15.5652
rhand -30.9617 1.83342
rfingers 7.12502
rthumb -4.24618 -28.104
lclavicle -8.15017e-015 1.88845e-014
lhumerus -19.0127 -25.6391 88.01
lradius 125.862
lwrist 7.24514
lhand -25.0887 -7.2893
lfingers 7.12502
lthumb 1.42588 22.6857
rfemur -75.3241 -9.75933 17.7235
rtibia 66.6491
rfoot -10.9289 -2.22039
rtoes -19.5271
lfemur -3.24721 -12.4998 -26.0787
ltibia 35.53
lfoot 27.3323 -5.74253
ltoes 6.18805
25
root 1.30463 15.6575 37.7702 -152.302 -3.90537 172.237
lowerback 13.596 -3.73754 -4.38755
upperback -0.226996 -5.61304 1.66486
thorax -7.26856 -2.57051 5.32839
lowerneck -19.0846 -0.730001 -2.53011
upperneck 1.42303 -0.0336464 1.22522
head 3.42543 0.217051 0.791501
rclavicle 4.25399e-014 6.95746e-015
rhumerus -73.2195 0.236047 -78.4984
rradius 78.0167
rwrist -15.7449
rhand -31.0464 1.99198
rfingers 7.12502
rthumb -4.32797 -27.9438
lclavicle 4.25399e-014 6.95746e-015
lhumerus -20.6996 -26.4555 89.0623
lradius 124.375
lwrist 7.6666
lhand -24.4088 -6.94052
lfingers 7.12502
lthumb 2.08253 23.0291
rfemur -74.3031 -9.92209 17.9918
rtibia 67.724
rfoot -12.0176 -3.2917
rtoes -18.3776
lfemur -3.8746 -12.2763 -26.3627
ltibia 37.7318
lfoot 28.0112 -5.79421
ltoes 9.9505
26
root 1.3215 15.649 37.3314 -152.399 -3.79562 172.105
lowerback 13.8568 -3.6645 -4.43618
upperback -0.209664 -5.53745 1.67156
thorax -7.40036 -2.52735 5.37322
lowerneck -19.1754 -0.789488 -2.66019
upperneck 1.43522 -0.070267 1.15163
head 3.44327 0.195822 0.786555
rclavicle 8.18993e-014 4.77083e-015
rhumerus -72.2012 -0.559523 -78.435
rradius 78.1077
rwrist -15.8831
rhand -31.1033 2.21277
rfingers 7.12502
rthumb -4.38291 -27.7219
lclavicle 8.18993e-014 4.77083e-015
lhumerus -22.4319 -27.0986 90.2625
lradius 122.625
lwrist 8.10363
lhand -23.8963 -6.64011
lfingers 7.12502
lthumb 2.57747 23.3241
rfemur -73.1188 -10.0168 18.3112
rtibia 68.939
rfoot -13.3761 -4.48229
rtoes -17.7705
lfemur -4.75371 -11.9167 -26.5078
ltibia 40.4739
lfoot 27.8078 -5.77985
ltoes 12.956
